<mxfile host="app.diagrams.net" agent="Mozilla/5.0 (Windows NT 10.0; Win64; x64) AppleWebKit/537.36 (KHTML, like Gecko) Chrome/136.0.0.0 Safari/537.36" version="27.0.6">
  <diagram name="PÃ¡gina-1" id="_o5sr0a-kSld7RcbUzVp">
    <mxGraphModel dx="2954" dy="1733" grid="1" gridSize="10" guides="1" tooltips="1" connect="1" arrows="1" fold="1" page="1" pageScale="1" pageWidth="827" pageHeight="1169" math="0" shadow="0">
      <root>
        <mxCell id="0" />
        <mxCell id="1" parent="0" />
        <mxCell id="6k8AdTA65JgWrHDslPgc-1" value="&lt;span style=&quot;color: rgba(0, 0, 0, 0); font-family: monospace; font-size: 0px; text-align: start; text-wrap-mode: nowrap;&quot;&gt;%3CmxGraphModel%3E%3Croot%3E%3CmxCell%20id%3D%220%22%2F%3E%3CmxCell%20id%3D%221%22%20parent%3D%220%22%2F%3E%3CmxCell%20id%3D%222%22%20value%3D%22%22%20style%3D%22rounded%3D0%3BorthogonalLoop%3D1%3BjettySize%3Dauto%3Bhtml%3D1%3BstrokeColor%3Ddefault%3BendArrow%3Dnone%3BstartFill%3D0%3BexitX%3D0.5%3BexitY%3D1%3BexitDx%3D0%3BexitDy%3D0%3B%22%20edge%3D%221%22%20source%3D%226%22%20parent%3D%221%22%3E%3CmxGeometry%20relative%3D%221%22%20as%3D%22geometry%22%3E%3CmxPoint%20x%3D%22-113%22%20y%3D%22640%22%20as%3D%22targetPoint%22%2F%3E%3C%2FmxGeometry%3E%3C%2FmxCell%3E%3CmxCell%20id%3D%223%22%20value%3D%221%2C1%22%20style%3D%22edgeLabel%3Bhtml%3D1%3Balign%3Dcenter%3BverticalAlign%3Dmiddle%3Bresizable%3D0%3Bpoints%3D%5B%5D%3B%22%20vertex%3D%221%22%20connectable%3D%220%22%20parent%3D%222%22%3E%3CmxGeometry%20x%3D%220.3278%22%20y%3D%223%22%20relative%3D%221%22%20as%3D%22geometry%22%3E%3CmxPoint%20as%3D%22offset%22%2F%3E%3C%2FmxGeometry%3E%3C%2FmxCell%3E%3CmxCell%20id%3D%224%22%20value%3D%22%22%20style%3D%22rounded%3D0%3BorthogonalLoop%3D1%3BjettySize%3Dauto%3Bhtml%3D1%3BstrokeColor%3Ddefault%3BendArrow%3Dnone%3BstartFill%3D0%3BexitX%3D1%3BexitY%3D0.5%3BexitDx%3D0%3BexitDy%3D0%3BentryX%3D-0.008%3BentryY%3D0.838%3BentryDx%3D0%3BentryDy%3D0%3BentryPerimeter%3D0%3B%22%20edge%3D%221%22%20source%3D%226%22%20parent%3D%221%22%3E%3CmxGeometry%20relative%3D%221%22%20as%3D%22geometry%22%3E%3CmxPoint%20x%3D%2239%22%20y%3D%22378%22%20as%3D%22targetPoint%22%2F%3E%3C%2FmxGeometry%3E%3C%2FmxCell%3E%3CmxCell%20id%3D%225%22%20value%3D%221%2CN%22%20style%3D%22edgeLabel%3Bhtml%3D1%3Balign%3Dcenter%3BverticalAlign%3Dmiddle%3Bresizable%3D0%3Bpoints%3D%5B%5D%3B%22%20vertex%3D%221%22%20connectable%3D%220%22%20parent%3D%224%22%3E%3CmxGeometry%20x%3D%220.3942%22%20y%3D%221%22%20relative%3D%221%22%20as%3D%22geometry%22%3E%3CmxPoint%20as%3D%22offset%22%2F%3E%3C%2FmxGeometry%3E%3C%2FmxCell%3E%3CmxCell%20id%3D%226%22%20value%3D%22tiene%26lt%3Bdiv%26gt%3B1%2CN%26lt%3B%2Fdiv%26gt%3B%22%20style%3D%22shape%3Drhombus%3Bperimeter%3DrhombusPerimeter%3BwhiteSpace%3Dwrap%3Bhtml%3D1%3Balign%3Dcenter%3B%22%20vertex%3D%221%22%20parent%3D%221%22%3E%3CmxGeometry%20x%3D%22-180%22%20y%3D%22370%22%20width%3D%22120%22%20height%3D%2260%22%20as%3D%22geometry%22%2F%3E%3C%2FmxCell%3E%3C%2Froot%3E%3C%2FmxGraphModel%3E&lt;/span&gt;ItemInventario" style="swimlane;childLayout=stackLayout;horizontal=1;startSize=50;horizontalStack=0;rounded=1;fontSize=14;fontStyle=0;strokeWidth=2;resizeParent=0;resizeLast=1;shadow=0;dashed=0;align=center;arcSize=4;whiteSpace=wrap;html=1;" parent="1" vertex="1">
          <mxGeometry x="40" y="110" width="160" height="320" as="geometry">
            <mxRectangle x="40" y="110" width="100" height="50" as="alternateBounds" />
          </mxGeometry>
        </mxCell>
        <mxCell id="6k8AdTA65JgWrHDslPgc-2" value="&lt;div&gt;Id&lt;/div&gt;&lt;div&gt;FormaRegistro&lt;/div&gt;&lt;div&gt;&lt;span style=&quot;background-color: transparent; color: light-dark(rgb(0, 0, 0), rgb(255, 255, 255));&quot;&gt;Departamento&lt;/span&gt;&lt;/div&gt;&lt;div&gt;Categoria&lt;/div&gt;&lt;div&gt;LineaServicio&lt;/div&gt;&lt;div&gt;SubLineaServicio&lt;/div&gt;&lt;div&gt;&lt;span style=&quot;background-color: transparent; color: light-dark(rgb(0, 0, 0), rgb(255, 255, 255));&quot;&gt;DescripcionEspecifica&lt;/span&gt;&lt;/div&gt;&lt;div&gt;EspecificacionesTecnicas&lt;/div&gt;&lt;div&gt;FechaCompra&lt;/div&gt;&lt;div&gt;ValorSinIVA&lt;/div&gt;&lt;div&gt;&lt;span style=&quot;background-color: transparent; color: light-dark(rgb(0, 0, 0), rgb(255, 255, 255));&quot;&gt;NumeroParteFabricante&lt;/span&gt;&lt;/div&gt;&lt;div&gt;NumeroSerieLPS&lt;/div&gt;&lt;div&gt;Estatus&lt;/div&gt;&lt;div&gt;CodigoProducto&lt;/div&gt;&lt;div&gt;IdProveedor&lt;/div&gt;&lt;div&gt;IdUbicacion&lt;/div&gt;&lt;div&gt;IdClasificacion&lt;/div&gt;&lt;div&gt;IdInformacionRegistro&lt;/div&gt;" style="align=left;strokeColor=none;fillColor=none;spacingLeft=4;spacingRight=4;fontSize=12;verticalAlign=top;resizable=0;rotatable=0;part=1;html=1;whiteSpace=wrap;" parent="6k8AdTA65JgWrHDslPgc-1" vertex="1">
          <mxGeometry y="50" width="160" height="270" as="geometry" />
        </mxCell>
        <mxCell id="6k8AdTA65JgWrHDslPgc-7" value="FormaRegistro" style="swimlane;childLayout=stackLayout;horizontal=1;startSize=50;horizontalStack=0;rounded=1;fontSize=14;fontStyle=0;strokeWidth=2;resizeParent=0;resizeLast=1;shadow=0;dashed=0;align=center;arcSize=4;whiteSpace=wrap;html=1;" parent="1" vertex="1">
          <mxGeometry x="-950" y="222.5" width="160" height="90" as="geometry">
            <mxRectangle x="140" y="90" width="100" height="50" as="alternateBounds" />
          </mxGeometry>
        </mxCell>
        <mxCell id="6k8AdTA65JgWrHDslPgc-8" value="&lt;div&gt;Id&lt;/div&gt;&lt;div&gt;FormaRegistro&lt;br&gt;&lt;/div&gt;&lt;div&gt;&lt;br&gt;&lt;/div&gt;" style="align=left;strokeColor=none;fillColor=none;spacingLeft=4;spacingRight=4;fontSize=12;verticalAlign=top;resizable=0;rotatable=0;part=1;html=1;whiteSpace=wrap;" parent="6k8AdTA65JgWrHDslPgc-7" vertex="1">
          <mxGeometry y="50" width="160" height="40" as="geometry" />
        </mxCell>
        <mxCell id="6k8AdTA65JgWrHDslPgc-11" value="" style="rounded=0;orthogonalLoop=1;jettySize=auto;html=1;strokeColor=default;endArrow=none;startFill=0;" parent="1" source="6k8AdTA65JgWrHDslPgc-10" target="6k8AdTA65JgWrHDslPgc-2" edge="1">
          <mxGeometry relative="1" as="geometry" />
        </mxCell>
        <mxCell id="6k8AdTA65JgWrHDslPgc-13" value="1,N" style="edgeLabel;html=1;align=center;verticalAlign=middle;resizable=0;points=[];" parent="6k8AdTA65JgWrHDslPgc-11" vertex="1" connectable="0">
          <mxGeometry x="0.3278" y="3" relative="1" as="geometry">
            <mxPoint as="offset" />
          </mxGeometry>
        </mxCell>
        <mxCell id="6k8AdTA65JgWrHDslPgc-12" value="" style="rounded=0;orthogonalLoop=1;jettySize=auto;html=1;strokeColor=default;endArrow=none;startFill=0;" parent="1" source="6k8AdTA65JgWrHDslPgc-10" target="HXhPkPJH1JH6XOMJlJsq-15" edge="1">
          <mxGeometry relative="1" as="geometry">
            <mxPoint x="-250" y="320" as="targetPoint" />
          </mxGeometry>
        </mxCell>
        <mxCell id="6k8AdTA65JgWrHDslPgc-14" value="1,1" style="edgeLabel;html=1;align=center;verticalAlign=middle;resizable=0;points=[];" parent="6k8AdTA65JgWrHDslPgc-12" vertex="1" connectable="0">
          <mxGeometry x="0.3942" y="1" relative="1" as="geometry">
            <mxPoint as="offset" />
          </mxGeometry>
        </mxCell>
        <mxCell id="6k8AdTA65JgWrHDslPgc-10" value="tiene&lt;div&gt;N,1&lt;/div&gt;" style="shape=rhombus;perimeter=rhombusPerimeter;whiteSpace=wrap;html=1;align=center;" parent="1" vertex="1">
          <mxGeometry x="-160" y="260" width="120" height="60" as="geometry" />
        </mxCell>
        <mxCell id="6k8AdTA65JgWrHDslPgc-15" value="Departamento" style="swimlane;childLayout=stackLayout;horizontal=1;startSize=50;horizontalStack=0;rounded=1;fontSize=14;fontStyle=0;strokeWidth=2;resizeParent=0;resizeLast=1;shadow=0;dashed=0;align=center;arcSize=4;whiteSpace=wrap;html=1;" parent="1" vertex="1">
          <mxGeometry x="727" y="395" width="160" height="90" as="geometry" />
        </mxCell>
        <mxCell id="6k8AdTA65JgWrHDslPgc-16" value="Id&lt;div&gt;&lt;span style=&quot;background-color: transparent; color: light-dark(rgb(0, 0, 0), rgb(255, 255, 255));&quot;&gt;Nombre&lt;/span&gt;&lt;/div&gt;" style="align=left;strokeColor=none;fillColor=none;spacingLeft=4;spacingRight=4;fontSize=12;verticalAlign=top;resizable=0;rotatable=0;part=1;html=1;whiteSpace=wrap;" parent="6k8AdTA65JgWrHDslPgc-15" vertex="1">
          <mxGeometry y="50" width="160" height="40" as="geometry" />
        </mxCell>
        <mxCell id="6k8AdTA65JgWrHDslPgc-22" value="" style="rounded=0;orthogonalLoop=1;jettySize=auto;html=1;strokeColor=default;endArrow=none;startFill=0;" parent="1" source="6k8AdTA65JgWrHDslPgc-26" target="Z9AiUvHEAsDgNyZiXq5s-1" edge="1">
          <mxGeometry relative="1" as="geometry">
            <mxPoint x="260" y="470" as="targetPoint" />
          </mxGeometry>
        </mxCell>
        <mxCell id="6k8AdTA65JgWrHDslPgc-23" value="1,N" style="edgeLabel;html=1;align=center;verticalAlign=middle;resizable=0;points=[];" parent="6k8AdTA65JgWrHDslPgc-22" vertex="1" connectable="0">
          <mxGeometry x="0.3278" y="3" relative="1" as="geometry">
            <mxPoint as="offset" />
          </mxGeometry>
        </mxCell>
        <mxCell id="6k8AdTA65JgWrHDslPgc-24" value="" style="rounded=0;orthogonalLoop=1;jettySize=auto;html=1;strokeColor=default;endArrow=none;startFill=0;" parent="1" source="6k8AdTA65JgWrHDslPgc-26" target="6k8AdTA65JgWrHDslPgc-15" edge="1">
          <mxGeometry relative="1" as="geometry">
            <mxPoint x="1040" y="302" as="targetPoint" />
          </mxGeometry>
        </mxCell>
        <mxCell id="6k8AdTA65JgWrHDslPgc-25" value="1,1" style="edgeLabel;html=1;align=center;verticalAlign=middle;resizable=0;points=[];" parent="6k8AdTA65JgWrHDslPgc-24" vertex="1" connectable="0">
          <mxGeometry x="0.3942" y="1" relative="1" as="geometry">
            <mxPoint as="offset" />
          </mxGeometry>
        </mxCell>
        <mxCell id="6k8AdTA65JgWrHDslPgc-26" value="tiene&lt;div&gt;N,1&lt;/div&gt;" style="shape=rhombus;perimeter=rhombusPerimeter;whiteSpace=wrap;html=1;align=center;" parent="1" vertex="1">
          <mxGeometry x="510" y="410" width="120" height="60" as="geometry" />
        </mxCell>
        <mxCell id="6k8AdTA65JgWrHDslPgc-34" value="Categoria" style="swimlane;childLayout=stackLayout;horizontal=1;startSize=50;horizontalStack=0;rounded=1;fontSize=14;fontStyle=0;strokeWidth=2;resizeParent=0;resizeLast=1;shadow=0;dashed=0;align=center;arcSize=4;whiteSpace=wrap;html=1;" parent="1" vertex="1">
          <mxGeometry x="920" y="285" width="160" height="90" as="geometry" />
        </mxCell>
        <mxCell id="6k8AdTA65JgWrHDslPgc-35" value="Id&lt;div&gt;&lt;div&gt;Nombre&lt;/div&gt;&lt;/div&gt;" style="align=left;strokeColor=none;fillColor=none;spacingLeft=4;spacingRight=4;fontSize=12;verticalAlign=top;resizable=0;rotatable=0;part=1;html=1;whiteSpace=wrap;" parent="6k8AdTA65JgWrHDslPgc-34" vertex="1">
          <mxGeometry y="50" width="160" height="40" as="geometry" />
        </mxCell>
        <mxCell id="6k8AdTA65JgWrHDslPgc-36" value="" style="rounded=0;orthogonalLoop=1;jettySize=auto;html=1;strokeColor=default;endArrow=none;startFill=0;" parent="1" source="6k8AdTA65JgWrHDslPgc-40" target="Z9AiUvHEAsDgNyZiXq5s-1" edge="1">
          <mxGeometry relative="1" as="geometry">
            <mxPoint x="209" y="690" as="targetPoint" />
          </mxGeometry>
        </mxCell>
        <mxCell id="6k8AdTA65JgWrHDslPgc-37" value="1,N" style="edgeLabel;html=1;align=center;verticalAlign=middle;resizable=0;points=[];" parent="6k8AdTA65JgWrHDslPgc-36" vertex="1" connectable="0">
          <mxGeometry x="0.3278" y="3" relative="1" as="geometry">
            <mxPoint as="offset" />
          </mxGeometry>
        </mxCell>
        <mxCell id="6k8AdTA65JgWrHDslPgc-38" value="" style="rounded=0;orthogonalLoop=1;jettySize=auto;html=1;strokeColor=default;endArrow=none;startFill=0;" parent="1" source="6k8AdTA65JgWrHDslPgc-40" target="6k8AdTA65JgWrHDslPgc-34" edge="1">
          <mxGeometry relative="1" as="geometry">
            <mxPoint x="629" y="707" as="targetPoint" />
          </mxGeometry>
        </mxCell>
        <mxCell id="6k8AdTA65JgWrHDslPgc-39" value="1,1" style="edgeLabel;html=1;align=center;verticalAlign=middle;resizable=0;points=[];" parent="6k8AdTA65JgWrHDslPgc-38" vertex="1" connectable="0">
          <mxGeometry x="0.3942" y="1" relative="1" as="geometry">
            <mxPoint as="offset" />
          </mxGeometry>
        </mxCell>
        <mxCell id="6k8AdTA65JgWrHDslPgc-40" value="tiene&lt;div&gt;N,1&lt;/div&gt;" style="shape=rhombus;perimeter=rhombusPerimeter;whiteSpace=wrap;html=1;align=center;" parent="1" vertex="1">
          <mxGeometry x="707" y="300" width="120" height="60" as="geometry" />
        </mxCell>
        <mxCell id="6k8AdTA65JgWrHDslPgc-49" value="LineaServicio" style="swimlane;childLayout=stackLayout;horizontal=1;startSize=50;horizontalStack=0;rounded=1;fontSize=14;fontStyle=0;strokeWidth=2;resizeParent=0;resizeLast=1;shadow=0;dashed=0;align=center;arcSize=4;whiteSpace=wrap;html=1;" parent="1" vertex="1">
          <mxGeometry x="488" y="-70" width="160" height="90" as="geometry" />
        </mxCell>
        <mxCell id="6k8AdTA65JgWrHDslPgc-50" value="Id&lt;div&gt;Nombre&lt;/div&gt;" style="align=left;strokeColor=none;fillColor=none;spacingLeft=4;spacingRight=4;fontSize=12;verticalAlign=top;resizable=0;rotatable=0;part=1;html=1;whiteSpace=wrap;" parent="6k8AdTA65JgWrHDslPgc-49" vertex="1">
          <mxGeometry y="50" width="160" height="40" as="geometry" />
        </mxCell>
        <mxCell id="6k8AdTA65JgWrHDslPgc-51" value="" style="rounded=0;orthogonalLoop=1;jettySize=auto;html=1;strokeColor=default;endArrow=none;startFill=0;" parent="1" source="6k8AdTA65JgWrHDslPgc-55" target="Z9AiUvHEAsDgNyZiXq5s-1" edge="1">
          <mxGeometry relative="1" as="geometry">
            <mxPoint x="209" y="740" as="targetPoint" />
            <mxPoint x="450" y="-40" as="sourcePoint" />
          </mxGeometry>
        </mxCell>
        <mxCell id="6k8AdTA65JgWrHDslPgc-52" value="1,N" style="edgeLabel;html=1;align=center;verticalAlign=middle;resizable=0;points=[];" parent="6k8AdTA65JgWrHDslPgc-51" vertex="1" connectable="0">
          <mxGeometry x="0.3278" y="3" relative="1" as="geometry">
            <mxPoint as="offset" />
          </mxGeometry>
        </mxCell>
        <mxCell id="6k8AdTA65JgWrHDslPgc-53" value="" style="rounded=0;orthogonalLoop=1;jettySize=auto;html=1;strokeColor=default;endArrow=none;startFill=0;" parent="1" source="6k8AdTA65JgWrHDslPgc-55" target="6k8AdTA65JgWrHDslPgc-49" edge="1">
          <mxGeometry relative="1" as="geometry">
            <mxPoint x="850" y="-213" as="targetPoint" />
          </mxGeometry>
        </mxCell>
        <mxCell id="6k8AdTA65JgWrHDslPgc-54" value="1,1" style="edgeLabel;html=1;align=center;verticalAlign=middle;resizable=0;points=[];" parent="6k8AdTA65JgWrHDslPgc-53" vertex="1" connectable="0">
          <mxGeometry x="0.3942" y="1" relative="1" as="geometry">
            <mxPoint as="offset" />
          </mxGeometry>
        </mxCell>
        <mxCell id="6k8AdTA65JgWrHDslPgc-55" value="tiene&lt;div&gt;N,1&lt;/div&gt;" style="shape=rhombus;perimeter=rhombusPerimeter;whiteSpace=wrap;html=1;align=center;" parent="1" vertex="1">
          <mxGeometry x="510" y="80" width="120" height="60" as="geometry" />
        </mxCell>
        <mxCell id="6k8AdTA65JgWrHDslPgc-61" value="SubLineaServicio" style="swimlane;childLayout=stackLayout;horizontal=1;startSize=50;horizontalStack=0;rounded=1;fontSize=14;fontStyle=0;strokeWidth=2;resizeParent=0;resizeLast=1;shadow=0;dashed=0;align=center;arcSize=4;whiteSpace=wrap;html=1;" parent="1" vertex="1">
          <mxGeometry x="887" y="55" width="160" height="105" as="geometry" />
        </mxCell>
        <mxCell id="6k8AdTA65JgWrHDslPgc-62" value="Id&lt;div&gt;Nombre&lt;/div&gt;&lt;div&gt;IdLineaServicio&lt;/div&gt;" style="align=left;strokeColor=none;fillColor=none;spacingLeft=4;spacingRight=4;fontSize=12;verticalAlign=top;resizable=0;rotatable=0;part=1;html=1;whiteSpace=wrap;" parent="6k8AdTA65JgWrHDslPgc-61" vertex="1">
          <mxGeometry y="50" width="160" height="55" as="geometry" />
        </mxCell>
        <mxCell id="6k8AdTA65JgWrHDslPgc-63" value="" style="rounded=0;orthogonalLoop=1;jettySize=auto;html=1;strokeColor=default;endArrow=none;startFill=0;" parent="1" source="6k8AdTA65JgWrHDslPgc-67" target="6k8AdTA65JgWrHDslPgc-49" edge="1">
          <mxGeometry relative="1" as="geometry">
            <mxPoint x="1152" y="-446" as="targetPoint" />
          </mxGeometry>
        </mxCell>
        <mxCell id="6k8AdTA65JgWrHDslPgc-64" value="1,1" style="edgeLabel;html=1;align=center;verticalAlign=middle;resizable=0;points=[];" parent="6k8AdTA65JgWrHDslPgc-63" vertex="1" connectable="0">
          <mxGeometry x="0.3278" y="3" relative="1" as="geometry">
            <mxPoint as="offset" />
          </mxGeometry>
        </mxCell>
        <mxCell id="6k8AdTA65JgWrHDslPgc-65" value="" style="rounded=0;orthogonalLoop=1;jettySize=auto;html=1;strokeColor=default;endArrow=none;startFill=0;" parent="1" source="6k8AdTA65JgWrHDslPgc-67" target="6k8AdTA65JgWrHDslPgc-61" edge="1">
          <mxGeometry relative="1" as="geometry">
            <mxPoint x="1420" y="-330" as="targetPoint" />
          </mxGeometry>
        </mxCell>
        <mxCell id="6k8AdTA65JgWrHDslPgc-66" value="0,N" style="edgeLabel;html=1;align=center;verticalAlign=middle;resizable=0;points=[];" parent="6k8AdTA65JgWrHDslPgc-65" vertex="1" connectable="0">
          <mxGeometry x="0.3942" y="1" relative="1" as="geometry">
            <mxPoint as="offset" />
          </mxGeometry>
        </mxCell>
        <mxCell id="6k8AdTA65JgWrHDslPgc-67" value="tiene&lt;div&gt;1,N&lt;/div&gt;" style="shape=rhombus;perimeter=rhombusPerimeter;whiteSpace=wrap;html=1;align=center;" parent="1" vertex="1">
          <mxGeometry x="727" y="-55" width="120" height="60" as="geometry" />
        </mxCell>
        <mxCell id="6k8AdTA65JgWrHDslPgc-69" value="" style="rounded=0;orthogonalLoop=1;jettySize=auto;html=1;strokeColor=default;endArrow=none;startFill=0;" parent="1" source="6k8AdTA65JgWrHDslPgc-73" target="Z9AiUvHEAsDgNyZiXq5s-1" edge="1">
          <mxGeometry relative="1" as="geometry">
            <mxPoint x="458" y="927.5" as="targetPoint" />
          </mxGeometry>
        </mxCell>
        <mxCell id="6k8AdTA65JgWrHDslPgc-70" value="1,N" style="edgeLabel;html=1;align=center;verticalAlign=middle;resizable=0;points=[];" parent="6k8AdTA65JgWrHDslPgc-69" vertex="1" connectable="0">
          <mxGeometry x="0.3278" y="3" relative="1" as="geometry">
            <mxPoint as="offset" />
          </mxGeometry>
        </mxCell>
        <mxCell id="6k8AdTA65JgWrHDslPgc-71" value="" style="rounded=0;orthogonalLoop=1;jettySize=auto;html=1;strokeColor=default;endArrow=none;startFill=0;" parent="1" source="6k8AdTA65JgWrHDslPgc-73" target="6k8AdTA65JgWrHDslPgc-61" edge="1">
          <mxGeometry relative="1" as="geometry">
            <mxPoint x="1030" y="-449.5" as="targetPoint" />
          </mxGeometry>
        </mxCell>
        <mxCell id="6k8AdTA65JgWrHDslPgc-72" value="0,1" style="edgeLabel;html=1;align=center;verticalAlign=middle;resizable=0;points=[];" parent="6k8AdTA65JgWrHDslPgc-71" vertex="1" connectable="0">
          <mxGeometry x="0.3942" y="1" relative="1" as="geometry">
            <mxPoint as="offset" />
          </mxGeometry>
        </mxCell>
        <mxCell id="6k8AdTA65JgWrHDslPgc-73" value="tiene&lt;div&gt;N,1&lt;/div&gt;" style="shape=rhombus;perimeter=rhombusPerimeter;whiteSpace=wrap;html=1;align=center;" parent="1" vertex="1">
          <mxGeometry x="707" y="175" width="120" height="60" as="geometry" />
        </mxCell>
        <mxCell id="6k8AdTA65JgWrHDslPgc-74" value="Proveedor" style="swimlane;childLayout=stackLayout;horizontal=1;startSize=50;horizontalStack=0;rounded=1;fontSize=14;fontStyle=0;strokeWidth=2;resizeParent=0;resizeLast=1;shadow=0;dashed=0;align=center;arcSize=4;whiteSpace=wrap;html=1;" parent="1" vertex="1">
          <mxGeometry x="260" y="491.25" width="160" height="180" as="geometry" />
        </mxCell>
        <mxCell id="6k8AdTA65JgWrHDslPgc-75" value="Id&lt;div&gt;Ruc&lt;/div&gt;&lt;div&gt;RazonSocial&lt;br&gt;&lt;div&gt;NombreComercial&lt;/div&gt;&lt;div&gt;Direccion&lt;br&gt;&lt;/div&gt;&lt;div&gt;PersonaContacto&lt;/div&gt;&lt;div&gt;Telefono&lt;/div&gt;&lt;div&gt;Email&lt;br&gt;&lt;/div&gt;&lt;/div&gt;" style="align=left;strokeColor=none;fillColor=none;spacingLeft=4;spacingRight=4;fontSize=12;verticalAlign=top;resizable=0;rotatable=0;part=1;html=1;whiteSpace=wrap;" parent="6k8AdTA65JgWrHDslPgc-74" vertex="1">
          <mxGeometry y="50" width="160" height="130" as="geometry" />
        </mxCell>
        <mxCell id="6k8AdTA65JgWrHDslPgc-76" value="" style="rounded=0;orthogonalLoop=1;jettySize=auto;html=1;strokeColor=default;endArrow=none;startFill=0;exitX=0.5;exitY=1;exitDx=0;exitDy=0;" parent="1" source="6k8AdTA65JgWrHDslPgc-80" target="6k8AdTA65JgWrHDslPgc-74" edge="1">
          <mxGeometry relative="1" as="geometry">
            <mxPoint x="-230" y="345" as="targetPoint" />
          </mxGeometry>
        </mxCell>
        <mxCell id="6k8AdTA65JgWrHDslPgc-77" value="1,1" style="edgeLabel;html=1;align=center;verticalAlign=middle;resizable=0;points=[];" parent="6k8AdTA65JgWrHDslPgc-76" vertex="1" connectable="0">
          <mxGeometry x="0.3278" y="3" relative="1" as="geometry">
            <mxPoint as="offset" />
          </mxGeometry>
        </mxCell>
        <mxCell id="6k8AdTA65JgWrHDslPgc-78" value="" style="rounded=0;orthogonalLoop=1;jettySize=auto;html=1;strokeColor=default;endArrow=none;startFill=0;" parent="1" source="6k8AdTA65JgWrHDslPgc-80" target="6k8AdTA65JgWrHDslPgc-1" edge="1">
          <mxGeometry relative="1" as="geometry">
            <mxPoint x="40" y="333" as="targetPoint" />
          </mxGeometry>
        </mxCell>
        <mxCell id="6k8AdTA65JgWrHDslPgc-79" value="1,N" style="edgeLabel;html=1;align=center;verticalAlign=middle;resizable=0;points=[];" parent="6k8AdTA65JgWrHDslPgc-78" vertex="1" connectable="0">
          <mxGeometry x="0.3942" y="1" relative="1" as="geometry">
            <mxPoint as="offset" />
          </mxGeometry>
        </mxCell>
        <mxCell id="6k8AdTA65JgWrHDslPgc-80" value="tiene&lt;div&gt;1,N&lt;/div&gt;" style="shape=rhombus;perimeter=rhombusPerimeter;whiteSpace=wrap;html=1;align=center;" parent="1" vertex="1">
          <mxGeometry x="280" y="390" width="120" height="60" as="geometry" />
        </mxCell>
        <mxCell id="6k8AdTA65JgWrHDslPgc-81" value="Estatus" style="swimlane;childLayout=stackLayout;horizontal=1;startSize=50;horizontalStack=0;rounded=1;fontSize=14;fontStyle=0;strokeWidth=2;resizeParent=0;resizeLast=1;shadow=0;dashed=0;align=center;arcSize=4;whiteSpace=wrap;html=1;" parent="1" vertex="1">
          <mxGeometry x="-460" y="730" width="160" height="95" as="geometry" />
        </mxCell>
        <mxCell id="6k8AdTA65JgWrHDslPgc-82" value="Id&lt;div&gt;Nombre&lt;/div&gt;" style="align=left;strokeColor=none;fillColor=none;spacingLeft=4;spacingRight=4;fontSize=12;verticalAlign=top;resizable=0;rotatable=0;part=1;html=1;whiteSpace=wrap;" parent="6k8AdTA65JgWrHDslPgc-81" vertex="1">
          <mxGeometry y="50" width="160" height="45" as="geometry" />
        </mxCell>
        <mxCell id="6k8AdTA65JgWrHDslPgc-96" value="NovedadItem" style="swimlane;childLayout=stackLayout;horizontal=1;startSize=50;horizontalStack=0;rounded=1;fontSize=14;fontStyle=0;strokeWidth=2;resizeParent=0;resizeLast=1;shadow=0;dashed=0;align=center;arcSize=4;whiteSpace=wrap;html=1;" parent="1" vertex="1">
          <mxGeometry x="40" y="-190" width="160" height="120" as="geometry" />
        </mxCell>
        <mxCell id="6k8AdTA65JgWrHDslPgc-97" value="Id&lt;div&gt;Fecha&lt;/div&gt;&lt;div&gt;Novedad&lt;/div&gt;&lt;div&gt;IdItemInventario&lt;/div&gt;" style="align=left;strokeColor=none;fillColor=none;spacingLeft=4;spacingRight=4;fontSize=12;verticalAlign=top;resizable=0;rotatable=0;part=1;html=1;whiteSpace=wrap;" parent="6k8AdTA65JgWrHDslPgc-96" vertex="1">
          <mxGeometry y="50" width="160" height="70" as="geometry" />
        </mxCell>
        <mxCell id="6k8AdTA65JgWrHDslPgc-98" value="Clasificacion" style="swimlane;childLayout=stackLayout;horizontal=1;startSize=50;horizontalStack=0;rounded=1;fontSize=14;fontStyle=0;strokeWidth=2;resizeParent=0;resizeLast=1;shadow=0;dashed=0;align=center;arcSize=4;whiteSpace=wrap;html=1;" parent="1" vertex="1">
          <mxGeometry x="-170" y="-55" width="100" height="90" as="geometry" />
        </mxCell>
        <mxCell id="6k8AdTA65JgWrHDslPgc-99" value="Id&lt;div&gt;Nombre&lt;/div&gt;" style="align=left;strokeColor=none;fillColor=none;spacingLeft=4;spacingRight=4;fontSize=12;verticalAlign=top;resizable=0;rotatable=0;part=1;html=1;whiteSpace=wrap;" parent="6k8AdTA65JgWrHDslPgc-98" vertex="1">
          <mxGeometry y="50" width="100" height="40" as="geometry" />
        </mxCell>
        <mxCell id="6k8AdTA65JgWrHDslPgc-136" value="" style="rounded=0;orthogonalLoop=1;jettySize=auto;html=1;strokeColor=default;endArrow=none;startFill=0;" parent="1" source="6k8AdTA65JgWrHDslPgc-140" target="6k8AdTA65JgWrHDslPgc-98" edge="1">
          <mxGeometry relative="1" as="geometry">
            <mxPoint x="-102" y="445" as="targetPoint" />
          </mxGeometry>
        </mxCell>
        <mxCell id="6k8AdTA65JgWrHDslPgc-137" value="1,1" style="edgeLabel;html=1;align=center;verticalAlign=middle;resizable=0;points=[];" parent="6k8AdTA65JgWrHDslPgc-136" vertex="1" connectable="0">
          <mxGeometry x="0.3278" y="3" relative="1" as="geometry">
            <mxPoint as="offset" />
          </mxGeometry>
        </mxCell>
        <mxCell id="6k8AdTA65JgWrHDslPgc-138" value="" style="rounded=0;orthogonalLoop=1;jettySize=auto;html=1;strokeColor=default;endArrow=none;startFill=0;entryX=0.005;entryY=0.178;entryDx=0;entryDy=0;entryPerimeter=0;" parent="1" source="6k8AdTA65JgWrHDslPgc-140" target="6k8AdTA65JgWrHDslPgc-2" edge="1">
          <mxGeometry relative="1" as="geometry">
            <mxPoint x="49" y="208" as="targetPoint" />
          </mxGeometry>
        </mxCell>
        <mxCell id="6k8AdTA65JgWrHDslPgc-139" value="1,N" style="edgeLabel;html=1;align=center;verticalAlign=middle;resizable=0;points=[];" parent="6k8AdTA65JgWrHDslPgc-138" vertex="1" connectable="0">
          <mxGeometry x="0.3942" y="1" relative="1" as="geometry">
            <mxPoint as="offset" />
          </mxGeometry>
        </mxCell>
        <mxCell id="6k8AdTA65JgWrHDslPgc-140" value="tiene&lt;div&gt;1,N&lt;/div&gt;" style="shape=rhombus;perimeter=rhombusPerimeter;whiteSpace=wrap;html=1;align=center;" parent="1" vertex="1">
          <mxGeometry x="-180" y="115" width="120" height="60" as="geometry" />
        </mxCell>
        <mxCell id="6k8AdTA65JgWrHDslPgc-142" value="" style="rounded=0;orthogonalLoop=1;jettySize=auto;html=1;strokeColor=default;endArrow=none;startFill=0;" parent="1" source="6k8AdTA65JgWrHDslPgc-146" target="6k8AdTA65JgWrHDslPgc-96" edge="1">
          <mxGeometry relative="1" as="geometry">
            <mxPoint x="-100" y="38" as="targetPoint" />
          </mxGeometry>
        </mxCell>
        <mxCell id="6k8AdTA65JgWrHDslPgc-143" value="1,N" style="edgeLabel;html=1;align=center;verticalAlign=middle;resizable=0;points=[];" parent="6k8AdTA65JgWrHDslPgc-142" vertex="1" connectable="0">
          <mxGeometry x="0.3278" y="3" relative="1" as="geometry">
            <mxPoint as="offset" />
          </mxGeometry>
        </mxCell>
        <mxCell id="6k8AdTA65JgWrHDslPgc-144" value="" style="rounded=0;orthogonalLoop=1;jettySize=auto;html=1;strokeColor=default;endArrow=none;startFill=0;" parent="1" source="6k8AdTA65JgWrHDslPgc-146" target="6k8AdTA65JgWrHDslPgc-1" edge="1">
          <mxGeometry relative="1" as="geometry">
            <mxPoint x="151" y="42" as="targetPoint" />
          </mxGeometry>
        </mxCell>
        <mxCell id="6k8AdTA65JgWrHDslPgc-145" value="1,1" style="edgeLabel;html=1;align=center;verticalAlign=middle;resizable=0;points=[];" parent="6k8AdTA65JgWrHDslPgc-144" vertex="1" connectable="0">
          <mxGeometry x="0.3942" y="1" relative="1" as="geometry">
            <mxPoint as="offset" />
          </mxGeometry>
        </mxCell>
        <mxCell id="6k8AdTA65JgWrHDslPgc-146" value="tiene&lt;div&gt;1,N&lt;/div&gt;" style="shape=rhombus;perimeter=rhombusPerimeter;whiteSpace=wrap;html=1;align=center;" parent="1" vertex="1">
          <mxGeometry x="60" y="-20" width="120" height="60" as="geometry" />
        </mxCell>
        <mxCell id="6k8AdTA65JgWrHDslPgc-147" value="Ubicacion" style="swimlane;childLayout=stackLayout;horizontal=1;startSize=50;horizontalStack=0;rounded=1;fontSize=14;fontStyle=0;strokeWidth=2;resizeParent=0;resizeLast=1;shadow=0;dashed=0;align=center;arcSize=4;whiteSpace=wrap;html=1;" parent="1" vertex="1">
          <mxGeometry x="290" width="100" height="90" as="geometry" />
        </mxCell>
        <mxCell id="6k8AdTA65JgWrHDslPgc-148" value="Id&lt;div&gt;Nombre&lt;/div&gt;" style="align=left;strokeColor=none;fillColor=none;spacingLeft=4;spacingRight=4;fontSize=12;verticalAlign=top;resizable=0;rotatable=0;part=1;html=1;whiteSpace=wrap;" parent="6k8AdTA65JgWrHDslPgc-147" vertex="1">
          <mxGeometry y="50" width="100" height="40" as="geometry" />
        </mxCell>
        <mxCell id="6k8AdTA65JgWrHDslPgc-149" value="" style="rounded=0;orthogonalLoop=1;jettySize=auto;html=1;strokeColor=default;endArrow=none;startFill=0;" parent="1" source="6k8AdTA65JgWrHDslPgc-153" target="6k8AdTA65JgWrHDslPgc-147" edge="1">
          <mxGeometry relative="1" as="geometry">
            <mxPoint x="150" y="-8" as="targetPoint" />
          </mxGeometry>
        </mxCell>
        <mxCell id="6k8AdTA65JgWrHDslPgc-150" value="1,1" style="edgeLabel;html=1;align=center;verticalAlign=middle;resizable=0;points=[];" parent="6k8AdTA65JgWrHDslPgc-149" vertex="1" connectable="0">
          <mxGeometry x="0.3278" y="3" relative="1" as="geometry">
            <mxPoint as="offset" />
          </mxGeometry>
        </mxCell>
        <mxCell id="6k8AdTA65JgWrHDslPgc-151" value="" style="rounded=0;orthogonalLoop=1;jettySize=auto;html=1;strokeColor=default;endArrow=none;startFill=0;" parent="1" source="6k8AdTA65JgWrHDslPgc-153" target="6k8AdTA65JgWrHDslPgc-1" edge="1">
          <mxGeometry relative="1" as="geometry">
            <mxPoint x="275" y="75" as="targetPoint" />
          </mxGeometry>
        </mxCell>
        <mxCell id="6k8AdTA65JgWrHDslPgc-152" value="1,N" style="edgeLabel;html=1;align=center;verticalAlign=middle;resizable=0;points=[];" parent="6k8AdTA65JgWrHDslPgc-151" vertex="1" connectable="0">
          <mxGeometry x="0.3942" y="1" relative="1" as="geometry">
            <mxPoint as="offset" />
          </mxGeometry>
        </mxCell>
        <mxCell id="6k8AdTA65JgWrHDslPgc-153" value="tiene&lt;div&gt;1,N&lt;/div&gt;" style="shape=rhombus;perimeter=rhombusPerimeter;whiteSpace=wrap;html=1;align=center;" parent="1" vertex="1">
          <mxGeometry x="280" y="140" width="120" height="60" as="geometry" />
        </mxCell>
        <mxCell id="6k8AdTA65JgWrHDslPgc-157" value="Usuario" style="swimlane;childLayout=stackLayout;horizontal=1;startSize=50;horizontalStack=0;rounded=1;fontSize=14;fontStyle=0;strokeWidth=2;resizeParent=0;resizeLast=1;shadow=0;dashed=0;align=center;arcSize=4;whiteSpace=wrap;html=1;" parent="1" vertex="1">
          <mxGeometry x="-545" y="-470" width="120" height="150" as="geometry" />
        </mxCell>
        <mxCell id="6k8AdTA65JgWrHDslPgc-158" value="Id&lt;div&gt;Nombres&lt;/div&gt;&lt;div&gt;Apellidos&lt;/div&gt;&lt;div&gt;NombreUsuario&lt;/div&gt;&lt;div&gt;Contrasena&lt;/div&gt;&lt;div&gt;IdPerfil&lt;/div&gt;" style="align=left;strokeColor=none;fillColor=none;spacingLeft=4;spacingRight=4;fontSize=12;verticalAlign=top;resizable=0;rotatable=0;part=1;html=1;whiteSpace=wrap;" parent="6k8AdTA65JgWrHDslPgc-157" vertex="1">
          <mxGeometry y="50" width="120" height="100" as="geometry" />
        </mxCell>
        <mxCell id="6k8AdTA65JgWrHDslPgc-159" value="Perfil" style="swimlane;childLayout=stackLayout;horizontal=1;startSize=50;horizontalStack=0;rounded=1;fontSize=14;fontStyle=0;strokeWidth=2;resizeParent=0;resizeLast=1;shadow=0;dashed=0;align=center;arcSize=4;whiteSpace=wrap;html=1;" parent="1" vertex="1">
          <mxGeometry x="-180" y="-445" width="120" height="100" as="geometry" />
        </mxCell>
        <mxCell id="6k8AdTA65JgWrHDslPgc-160" value="Id&lt;div&gt;&lt;span style=&quot;background-color: transparent; color: light-dark(rgb(0, 0, 0), rgb(255, 255, 255));&quot;&gt;Nombre&lt;/span&gt;&lt;/div&gt;" style="align=left;strokeColor=none;fillColor=none;spacingLeft=4;spacingRight=4;fontSize=12;verticalAlign=top;resizable=0;rotatable=0;part=1;html=1;whiteSpace=wrap;" parent="6k8AdTA65JgWrHDslPgc-159" vertex="1">
          <mxGeometry y="50" width="120" height="50" as="geometry" />
        </mxCell>
        <mxCell id="6k8AdTA65JgWrHDslPgc-162" value="" style="rounded=0;orthogonalLoop=1;jettySize=auto;html=1;strokeColor=default;endArrow=none;startFill=0;" parent="1" source="6k8AdTA65JgWrHDslPgc-166" target="6k8AdTA65JgWrHDslPgc-159" edge="1">
          <mxGeometry relative="1" as="geometry">
            <mxPoint x="235" y="-518" as="targetPoint" />
          </mxGeometry>
        </mxCell>
        <mxCell id="6k8AdTA65JgWrHDslPgc-163" value="1,1" style="edgeLabel;html=1;align=center;verticalAlign=middle;resizable=0;points=[];" parent="6k8AdTA65JgWrHDslPgc-162" vertex="1" connectable="0">
          <mxGeometry x="0.3278" y="3" relative="1" as="geometry">
            <mxPoint x="16" y="7" as="offset" />
          </mxGeometry>
        </mxCell>
        <mxCell id="6k8AdTA65JgWrHDslPgc-164" value="" style="rounded=0;orthogonalLoop=1;jettySize=auto;html=1;strokeColor=default;endArrow=none;startFill=0;" parent="1" source="6k8AdTA65JgWrHDslPgc-166" target="6k8AdTA65JgWrHDslPgc-157" edge="1">
          <mxGeometry relative="1" as="geometry">
            <mxPoint x="-112.5" y="-505" as="targetPoint" />
          </mxGeometry>
        </mxCell>
        <mxCell id="6k8AdTA65JgWrHDslPgc-165" value="1,N" style="edgeLabel;html=1;align=center;verticalAlign=middle;resizable=0;points=[];" parent="6k8AdTA65JgWrHDslPgc-164" vertex="1" connectable="0">
          <mxGeometry x="0.3942" y="1" relative="1" as="geometry">
            <mxPoint x="9" y="-9" as="offset" />
          </mxGeometry>
        </mxCell>
        <mxCell id="6k8AdTA65JgWrHDslPgc-166" value="tiene&lt;div&gt;1,N&lt;/div&gt;" style="shape=rhombus;perimeter=rhombusPerimeter;whiteSpace=wrap;html=1;align=center;" parent="1" vertex="1">
          <mxGeometry x="-355" y="-425" width="120" height="60" as="geometry" />
        </mxCell>
        <mxCell id="6k8AdTA65JgWrHDslPgc-176" value="Permisos" style="swimlane;childLayout=stackLayout;horizontal=1;startSize=50;horizontalStack=0;rounded=1;fontSize=14;fontStyle=0;strokeWidth=2;resizeParent=0;resizeLast=1;shadow=0;dashed=0;align=center;arcSize=4;whiteSpace=wrap;html=1;" parent="1" vertex="1">
          <mxGeometry x="160" y="-445" width="120" height="100" as="geometry" />
        </mxCell>
        <mxCell id="6k8AdTA65JgWrHDslPgc-177" value="Id&lt;div&gt;&lt;span style=&quot;background-color: transparent; color: light-dark(rgb(0, 0, 0), rgb(255, 255, 255));&quot;&gt;NombrePermiso&lt;br&gt;&lt;/span&gt;&lt;/div&gt;" style="align=left;strokeColor=none;fillColor=none;spacingLeft=4;spacingRight=4;fontSize=12;verticalAlign=top;resizable=0;rotatable=0;part=1;html=1;whiteSpace=wrap;" parent="6k8AdTA65JgWrHDslPgc-176" vertex="1">
          <mxGeometry y="50" width="120" height="50" as="geometry" />
        </mxCell>
        <mxCell id="6k8AdTA65JgWrHDslPgc-178" value="" style="rounded=0;orthogonalLoop=1;jettySize=auto;html=1;strokeColor=default;endArrow=none;startFill=0;" parent="1" source="6k8AdTA65JgWrHDslPgc-182" target="6k8AdTA65JgWrHDslPgc-176" edge="1">
          <mxGeometry relative="1" as="geometry">
            <mxPoint x="130" y="-500" as="targetPoint" />
          </mxGeometry>
        </mxCell>
        <mxCell id="6k8AdTA65JgWrHDslPgc-179" value="0,N" style="edgeLabel;html=1;align=center;verticalAlign=middle;resizable=0;points=[];" parent="6k8AdTA65JgWrHDslPgc-178" vertex="1" connectable="0">
          <mxGeometry x="0.3278" y="3" relative="1" as="geometry">
            <mxPoint x="16" y="7" as="offset" />
          </mxGeometry>
        </mxCell>
        <mxCell id="6k8AdTA65JgWrHDslPgc-180" value="" style="rounded=0;orthogonalLoop=1;jettySize=auto;html=1;strokeColor=default;endArrow=none;startFill=0;" parent="1" source="6k8AdTA65JgWrHDslPgc-182" target="6k8AdTA65JgWrHDslPgc-159" edge="1">
          <mxGeometry relative="1" as="geometry">
            <mxPoint x="-20" y="-480" as="targetPoint" />
          </mxGeometry>
        </mxCell>
        <mxCell id="6k8AdTA65JgWrHDslPgc-181" value="0,N" style="edgeLabel;html=1;align=center;verticalAlign=middle;resizable=0;points=[];" parent="6k8AdTA65JgWrHDslPgc-180" vertex="1" connectable="0">
          <mxGeometry x="0.3942" y="1" relative="1" as="geometry">
            <mxPoint x="9" y="-9" as="offset" />
          </mxGeometry>
        </mxCell>
        <mxCell id="6k8AdTA65JgWrHDslPgc-182" value="tiene&lt;div&gt;N,N&lt;/div&gt;" style="shape=rhombus;perimeter=rhombusPerimeter;whiteSpace=wrap;html=1;align=center;" parent="1" vertex="1">
          <mxGeometry x="-10" y="-425" width="120" height="60" as="geometry" />
        </mxCell>
        <mxCell id="6k8AdTA65JgWrHDslPgc-124" value="" style="rounded=0;orthogonalLoop=1;jettySize=auto;html=1;strokeColor=default;endArrow=none;startFill=0;" parent="1" source="6k8AdTA65JgWrHDslPgc-126" target="6k8AdTA65JgWrHDslPgc-109" edge="1">
          <mxGeometry relative="1" as="geometry">
            <mxPoint x="-279" y="1017.77" as="targetPoint" />
          </mxGeometry>
        </mxCell>
        <mxCell id="6k8AdTA65JgWrHDslPgc-125" value="0,N" style="edgeLabel;html=1;align=center;verticalAlign=middle;resizable=0;points=[];" parent="6k8AdTA65JgWrHDslPgc-124" vertex="1" connectable="0">
          <mxGeometry x="0.3942" y="1" relative="1" as="geometry">
            <mxPoint as="offset" />
          </mxGeometry>
        </mxCell>
        <mxCell id="6k8AdTA65JgWrHDslPgc-122" value="" style="rounded=0;orthogonalLoop=1;jettySize=auto;html=1;strokeColor=default;endArrow=none;startFill=0;" parent="1" source="6k8AdTA65JgWrHDslPgc-126" target="HXhPkPJH1JH6XOMJlJsq-52" edge="1">
          <mxGeometry relative="1" as="geometry">
            <mxPoint x="-790" y="1041.71" as="targetPoint" />
          </mxGeometry>
        </mxCell>
        <mxCell id="6k8AdTA65JgWrHDslPgc-123" value="1,1" style="edgeLabel;html=1;align=center;verticalAlign=middle;resizable=0;points=[];" parent="6k8AdTA65JgWrHDslPgc-122" vertex="1" connectable="0">
          <mxGeometry x="0.3278" y="3" relative="1" as="geometry">
            <mxPoint x="3" y="8" as="offset" />
          </mxGeometry>
        </mxCell>
        <mxCell id="6k8AdTA65JgWrHDslPgc-126" value="tiene&lt;div&gt;1,N&lt;/div&gt;" style="shape=rhombus;perimeter=rhombusPerimeter;whiteSpace=wrap;html=1;align=center;" parent="1" vertex="1">
          <mxGeometry x="-1080" y="1120" width="120" height="60" as="geometry" />
        </mxCell>
        <mxCell id="6k8AdTA65JgWrHDslPgc-109" value="DetalleNoOperativo" style="swimlane;childLayout=stackLayout;horizontal=1;startSize=50;horizontalStack=0;rounded=1;fontSize=14;fontStyle=0;strokeWidth=2;resizeParent=0;resizeLast=1;shadow=0;dashed=0;align=center;arcSize=4;whiteSpace=wrap;html=1;" parent="1" vertex="1">
          <mxGeometry x="-890" y="1062.96" width="160" height="150" as="geometry" />
        </mxCell>
        <mxCell id="6k8AdTA65JgWrHDslPgc-110" value="Id&lt;div&gt;IdItemsNoOperativo&lt;br&gt;&lt;div&gt;Fecha&lt;/div&gt;&lt;div&gt;Justificativo&lt;/div&gt;&lt;div&gt;AprobarBajaInventario&lt;br&gt;EspecificarcionOtro&lt;/div&gt;&lt;/div&gt;" style="align=left;strokeColor=none;fillColor=none;spacingLeft=4;spacingRight=4;fontSize=12;verticalAlign=top;resizable=0;rotatable=0;part=1;html=1;whiteSpace=wrap;" parent="6k8AdTA65JgWrHDslPgc-109" vertex="1">
          <mxGeometry y="50" width="160" height="100" as="geometry" />
        </mxCell>
        <mxCell id="6k8AdTA65JgWrHDslPgc-105" value="DetalleVendido" style="swimlane;childLayout=stackLayout;horizontal=1;startSize=50;horizontalStack=0;rounded=1;fontSize=14;fontStyle=0;strokeWidth=2;resizeParent=0;resizeLast=1;shadow=0;dashed=0;align=center;arcSize=4;whiteSpace=wrap;html=1;" parent="1" vertex="1">
          <mxGeometry x="-430" y="1062.96" width="160" height="148.75" as="geometry" />
        </mxCell>
        <mxCell id="6k8AdTA65JgWrHDslPgc-106" value="Id&lt;div&gt;IdEstatusVendido&lt;br&gt;&lt;div&gt;Fecha&lt;/div&gt;&lt;div&gt;IdCliente&lt;/div&gt;&lt;div&gt;Pozo&lt;/div&gt;&lt;div&gt;IdGuiaRemision&lt;/div&gt;&lt;/div&gt;" style="align=left;strokeColor=none;fillColor=none;spacingLeft=4;spacingRight=4;fontSize=12;verticalAlign=top;resizable=0;rotatable=0;part=1;html=1;whiteSpace=wrap;" parent="6k8AdTA65JgWrHDslPgc-105" vertex="1">
          <mxGeometry y="50" width="160" height="98.75" as="geometry" />
        </mxCell>
        <mxCell id="6k8AdTA65JgWrHDslPgc-103" value="DetalleLIH" style="swimlane;childLayout=stackLayout;horizontal=1;startSize=50;horizontalStack=0;rounded=1;fontSize=14;fontStyle=0;strokeWidth=2;resizeParent=0;resizeLast=1;shadow=0;dashed=0;align=center;arcSize=4;whiteSpace=wrap;html=1;" parent="1" vertex="1">
          <mxGeometry x="-630" y="1072.96" width="130" height="128.75" as="geometry" />
        </mxCell>
        <mxCell id="6k8AdTA65JgWrHDslPgc-104" value="Id&lt;div&gt;IdEstatusLIH&lt;/div&gt;&lt;div&gt;&lt;div&gt;Fecha&lt;/div&gt;&lt;div&gt;IdCliente&lt;/div&gt;&lt;div&gt;Pozo&lt;/div&gt;&lt;/div&gt;" style="align=left;strokeColor=none;fillColor=none;spacingLeft=4;spacingRight=4;fontSize=12;verticalAlign=top;resizable=0;rotatable=0;part=1;html=1;whiteSpace=wrap;" parent="6k8AdTA65JgWrHDslPgc-103" vertex="1">
          <mxGeometry y="50" width="130" height="78.75" as="geometry" />
        </mxCell>
        <mxCell id="6k8AdTA65JgWrHDslPgc-199" value="" style="rounded=0;orthogonalLoop=1;jettySize=auto;html=1;strokeColor=default;endArrow=none;startFill=0;" parent="1" source="6k8AdTA65JgWrHDslPgc-203" target="6k8AdTA65JgWrHDslPgc-109" edge="1">
          <mxGeometry relative="1" as="geometry">
            <mxPoint x="-680" y="1020" as="targetPoint" />
          </mxGeometry>
        </mxCell>
        <mxCell id="6k8AdTA65JgWrHDslPgc-200" value="1,N" style="edgeLabel;html=1;align=center;verticalAlign=middle;resizable=0;points=[];" parent="6k8AdTA65JgWrHDslPgc-199" vertex="1" connectable="0">
          <mxGeometry x="0.3942" y="1" relative="1" as="geometry">
            <mxPoint as="offset" />
          </mxGeometry>
        </mxCell>
        <mxCell id="6k8AdTA65JgWrHDslPgc-201" value="" style="rounded=0;orthogonalLoop=1;jettySize=auto;html=1;strokeColor=default;endArrow=none;startFill=0;" parent="1" source="6k8AdTA65JgWrHDslPgc-203" target="6k8AdTA65JgWrHDslPgc-81" edge="1">
          <mxGeometry relative="1" as="geometry">
            <mxPoint x="-720" y="798" as="targetPoint" />
          </mxGeometry>
        </mxCell>
        <mxCell id="6k8AdTA65JgWrHDslPgc-202" value="1,1" style="edgeLabel;html=1;align=center;verticalAlign=middle;resizable=0;points=[];" parent="6k8AdTA65JgWrHDslPgc-201" vertex="1" connectable="0">
          <mxGeometry x="0.3278" y="3" relative="1" as="geometry">
            <mxPoint x="3" y="8" as="offset" />
          </mxGeometry>
        </mxCell>
        <mxCell id="6k8AdTA65JgWrHDslPgc-203" value="tiene&lt;div&gt;N,1&lt;/div&gt;" style="shape=rhombus;perimeter=rhombusPerimeter;whiteSpace=wrap;html=1;align=center;" parent="1" vertex="1">
          <mxGeometry x="-810" y="808.75" width="120" height="60" as="geometry" />
        </mxCell>
        <mxCell id="6k8AdTA65JgWrHDslPgc-204" value="" style="rounded=0;orthogonalLoop=1;jettySize=auto;html=1;strokeColor=default;endArrow=none;startFill=0;" parent="1" source="6k8AdTA65JgWrHDslPgc-208" target="6k8AdTA65JgWrHDslPgc-103" edge="1">
          <mxGeometry relative="1" as="geometry">
            <mxPoint x="-540" y="1021.21" as="targetPoint" />
          </mxGeometry>
        </mxCell>
        <mxCell id="6k8AdTA65JgWrHDslPgc-205" value="1,N" style="edgeLabel;html=1;align=center;verticalAlign=middle;resizable=0;points=[];" parent="6k8AdTA65JgWrHDslPgc-204" vertex="1" connectable="0">
          <mxGeometry x="0.3942" y="1" relative="1" as="geometry">
            <mxPoint as="offset" />
          </mxGeometry>
        </mxCell>
        <mxCell id="6k8AdTA65JgWrHDslPgc-206" value="" style="rounded=0;orthogonalLoop=1;jettySize=auto;html=1;strokeColor=default;endArrow=none;startFill=0;exitX=0.5;exitY=0;exitDx=0;exitDy=0;" parent="1" source="6k8AdTA65JgWrHDslPgc-208" target="6k8AdTA65JgWrHDslPgc-81" edge="1">
          <mxGeometry relative="1" as="geometry">
            <mxPoint x="-560" y="686.25" as="targetPoint" />
          </mxGeometry>
        </mxCell>
        <mxCell id="6k8AdTA65JgWrHDslPgc-207" value="1,1" style="edgeLabel;html=1;align=center;verticalAlign=middle;resizable=0;points=[];" parent="6k8AdTA65JgWrHDslPgc-206" vertex="1" connectable="0">
          <mxGeometry x="0.3278" y="3" relative="1" as="geometry">
            <mxPoint x="3" y="8" as="offset" />
          </mxGeometry>
        </mxCell>
        <mxCell id="6k8AdTA65JgWrHDslPgc-208" value="tiene&lt;div&gt;1,N&lt;/div&gt;" style="shape=rhombus;perimeter=rhombusPerimeter;whiteSpace=wrap;html=1;align=center;" parent="1" vertex="1">
          <mxGeometry x="-555" y="950.46" width="120" height="60" as="geometry" />
        </mxCell>
        <mxCell id="6k8AdTA65JgWrHDslPgc-209" value="" style="rounded=0;orthogonalLoop=1;jettySize=auto;html=1;strokeColor=default;endArrow=none;startFill=0;" parent="1" source="6k8AdTA65JgWrHDslPgc-213" target="6k8AdTA65JgWrHDslPgc-105" edge="1">
          <mxGeometry relative="1" as="geometry">
            <mxPoint x="-370" y="1040.46" as="targetPoint" />
          </mxGeometry>
        </mxCell>
        <mxCell id="6k8AdTA65JgWrHDslPgc-210" value="1,N" style="edgeLabel;html=1;align=center;verticalAlign=middle;resizable=0;points=[];" parent="6k8AdTA65JgWrHDslPgc-209" vertex="1" connectable="0">
          <mxGeometry x="0.3942" y="1" relative="1" as="geometry">
            <mxPoint as="offset" />
          </mxGeometry>
        </mxCell>
        <mxCell id="6k8AdTA65JgWrHDslPgc-211" value="" style="rounded=0;orthogonalLoop=1;jettySize=auto;html=1;strokeColor=default;endArrow=none;startFill=0;exitX=0.5;exitY=0;exitDx=0;exitDy=0;" parent="1" source="6k8AdTA65JgWrHDslPgc-213" target="6k8AdTA65JgWrHDslPgc-81" edge="1">
          <mxGeometry relative="1" as="geometry">
            <mxPoint x="-390" y="705.5" as="targetPoint" />
          </mxGeometry>
        </mxCell>
        <mxCell id="6k8AdTA65JgWrHDslPgc-212" value="1,1" style="edgeLabel;html=1;align=center;verticalAlign=middle;resizable=0;points=[];" parent="6k8AdTA65JgWrHDslPgc-211" vertex="1" connectable="0">
          <mxGeometry x="0.3278" y="3" relative="1" as="geometry">
            <mxPoint x="11" y="6" as="offset" />
          </mxGeometry>
        </mxCell>
        <mxCell id="6k8AdTA65JgWrHDslPgc-213" value="tiene&lt;div&gt;1,N&lt;/div&gt;" style="shape=rhombus;perimeter=rhombusPerimeter;whiteSpace=wrap;html=1;align=center;" parent="1" vertex="1">
          <mxGeometry x="-390" y="931.71" width="120" height="60" as="geometry" />
        </mxCell>
        <mxCell id="6k8AdTA65JgWrHDslPgc-214" value="Cliente" style="swimlane;childLayout=stackLayout;horizontal=1;startSize=50;horizontalStack=0;rounded=1;fontSize=14;fontStyle=0;strokeWidth=2;resizeParent=0;resizeLast=1;shadow=0;dashed=0;align=center;arcSize=4;whiteSpace=wrap;html=1;" parent="1" vertex="1">
          <mxGeometry x="-510" y="1411.71" width="130" height="140" as="geometry" />
        </mxCell>
        <mxCell id="6k8AdTA65JgWrHDslPgc-215" value="Id&lt;div&gt;NumeroIdentificacion&lt;/div&gt;&lt;div&gt;NombreCliente&lt;/div&gt;&lt;div&gt;Telefono&lt;/div&gt;&lt;div&gt;Contacto&lt;/div&gt;" style="align=left;strokeColor=none;fillColor=none;spacingLeft=4;spacingRight=4;fontSize=12;verticalAlign=top;resizable=0;rotatable=0;part=1;html=1;whiteSpace=wrap;" parent="6k8AdTA65JgWrHDslPgc-214" vertex="1">
          <mxGeometry y="50" width="130" height="90" as="geometry" />
        </mxCell>
        <mxCell id="6k8AdTA65JgWrHDslPgc-216" value="" style="rounded=0;orthogonalLoop=1;jettySize=auto;html=1;strokeColor=default;endArrow=none;startFill=0;" parent="1" source="6k8AdTA65JgWrHDslPgc-220" target="6k8AdTA65JgWrHDslPgc-214" edge="1">
          <mxGeometry relative="1" as="geometry">
            <mxPoint x="-602" y="1457.71" as="targetPoint" />
          </mxGeometry>
        </mxCell>
        <mxCell id="6k8AdTA65JgWrHDslPgc-217" value="1,1" style="edgeLabel;html=1;align=center;verticalAlign=middle;resizable=0;points=[];" parent="6k8AdTA65JgWrHDslPgc-216" vertex="1" connectable="0">
          <mxGeometry x="0.3942" y="1" relative="1" as="geometry">
            <mxPoint as="offset" />
          </mxGeometry>
        </mxCell>
        <mxCell id="6k8AdTA65JgWrHDslPgc-218" value="" style="rounded=0;orthogonalLoop=1;jettySize=auto;html=1;strokeColor=default;endArrow=none;startFill=0;exitX=0.5;exitY=0;exitDx=0;exitDy=0;" parent="1" source="6k8AdTA65JgWrHDslPgc-220" target="6k8AdTA65JgWrHDslPgc-103" edge="1">
          <mxGeometry relative="1" as="geometry">
            <mxPoint x="-447" y="1261.71" as="targetPoint" />
          </mxGeometry>
        </mxCell>
        <mxCell id="6k8AdTA65JgWrHDslPgc-219" value="1,N" style="edgeLabel;html=1;align=center;verticalAlign=middle;resizable=0;points=[];" parent="6k8AdTA65JgWrHDslPgc-218" vertex="1" connectable="0">
          <mxGeometry x="0.3278" y="3" relative="1" as="geometry">
            <mxPoint x="10" y="8" as="offset" />
          </mxGeometry>
        </mxCell>
        <mxCell id="6k8AdTA65JgWrHDslPgc-220" value="tiene&lt;div&gt;N,1&lt;/div&gt;" style="shape=rhombus;perimeter=rhombusPerimeter;whiteSpace=wrap;html=1;align=center;" parent="1" vertex="1">
          <mxGeometry x="-620" y="1275.46" width="120" height="60" as="geometry" />
        </mxCell>
        <mxCell id="6k8AdTA65JgWrHDslPgc-228" value="" style="rounded=0;orthogonalLoop=1;jettySize=auto;html=1;strokeColor=default;endArrow=none;startFill=0;" parent="1" source="6k8AdTA65JgWrHDslPgc-232" target="6k8AdTA65JgWrHDslPgc-214" edge="1">
          <mxGeometry relative="1" as="geometry">
            <mxPoint x="-338.88" y="1419.8400000000001" as="targetPoint" />
          </mxGeometry>
        </mxCell>
        <mxCell id="6k8AdTA65JgWrHDslPgc-229" value="1,1" style="edgeLabel;html=1;align=center;verticalAlign=middle;resizable=0;points=[];" parent="6k8AdTA65JgWrHDslPgc-228" vertex="1" connectable="0">
          <mxGeometry x="0.3942" y="1" relative="1" as="geometry">
            <mxPoint as="offset" />
          </mxGeometry>
        </mxCell>
        <mxCell id="6k8AdTA65JgWrHDslPgc-230" value="" style="rounded=0;orthogonalLoop=1;jettySize=auto;html=1;strokeColor=default;endArrow=none;startFill=0;exitX=0.5;exitY=0;exitDx=0;exitDy=0;" parent="1" source="6k8AdTA65JgWrHDslPgc-232" target="6k8AdTA65JgWrHDslPgc-105" edge="1">
          <mxGeometry relative="1" as="geometry">
            <mxPoint x="-270.00264150943383" y="1191.09" as="targetPoint" />
          </mxGeometry>
        </mxCell>
        <mxCell id="6k8AdTA65JgWrHDslPgc-231" value="1,N" style="edgeLabel;html=1;align=center;verticalAlign=middle;resizable=0;points=[];" parent="6k8AdTA65JgWrHDslPgc-230" vertex="1" connectable="0">
          <mxGeometry x="0.3278" y="3" relative="1" as="geometry">
            <mxPoint x="10" y="8" as="offset" />
          </mxGeometry>
        </mxCell>
        <mxCell id="6k8AdTA65JgWrHDslPgc-232" value="tiene&lt;div&gt;N,1&lt;/div&gt;" style="shape=rhombus;perimeter=rhombusPerimeter;whiteSpace=wrap;html=1;align=center;" parent="1" vertex="1">
          <mxGeometry x="-443" y="1283.59" width="120" height="60" as="geometry" />
        </mxCell>
        <mxCell id="6k8AdTA65JgWrHDslPgc-233" value="GuiaRemision" style="swimlane;childLayout=stackLayout;horizontal=1;startSize=50;horizontalStack=0;rounded=1;fontSize=14;fontStyle=0;strokeWidth=2;resizeParent=0;resizeLast=1;shadow=0;dashed=0;align=center;arcSize=4;whiteSpace=wrap;html=1;" parent="1" vertex="1">
          <mxGeometry x="-180" y="1371.71" width="130" height="110" as="geometry" />
        </mxCell>
        <mxCell id="6k8AdTA65JgWrHDslPgc-234" value="Id&lt;div&gt;FechaEmision&lt;/div&gt;&lt;div&gt;NumerodeGuia&lt;/div&gt;&lt;div&gt;&lt;br&gt;&lt;/div&gt;" style="align=left;strokeColor=none;fillColor=none;spacingLeft=4;spacingRight=4;fontSize=12;verticalAlign=top;resizable=0;rotatable=0;part=1;html=1;whiteSpace=wrap;" parent="6k8AdTA65JgWrHDslPgc-233" vertex="1">
          <mxGeometry y="50" width="130" height="60" as="geometry" />
        </mxCell>
        <mxCell id="6k8AdTA65JgWrHDslPgc-235" value="" style="rounded=0;orthogonalLoop=1;jettySize=auto;html=1;strokeColor=default;endArrow=none;startFill=0;" parent="1" source="6k8AdTA65JgWrHDslPgc-239" target="6k8AdTA65JgWrHDslPgc-233" edge="1">
          <mxGeometry relative="1" as="geometry">
            <mxPoint x="-306" y="1380.46" as="targetPoint" />
            <mxPoint x="-127" y="1260.46" as="sourcePoint" />
          </mxGeometry>
        </mxCell>
        <mxCell id="6k8AdTA65JgWrHDslPgc-236" value="1,1" style="edgeLabel;html=1;align=center;verticalAlign=middle;resizable=0;points=[];" parent="6k8AdTA65JgWrHDslPgc-235" vertex="1" connectable="0">
          <mxGeometry x="0.3942" y="1" relative="1" as="geometry">
            <mxPoint as="offset" />
          </mxGeometry>
        </mxCell>
        <mxCell id="6k8AdTA65JgWrHDslPgc-237" value="" style="rounded=0;orthogonalLoop=1;jettySize=auto;html=1;strokeColor=default;endArrow=none;startFill=0;exitX=0.5;exitY=0;exitDx=0;exitDy=0;" parent="1" source="6k8AdTA65JgWrHDslPgc-239" target="6k8AdTA65JgWrHDslPgc-105" edge="1">
          <mxGeometry relative="1" as="geometry">
            <mxPoint x="-255.33090379008763" y="1151.71" as="targetPoint" />
          </mxGeometry>
        </mxCell>
        <mxCell id="6k8AdTA65JgWrHDslPgc-238" value="1,1" style="edgeLabel;html=1;align=center;verticalAlign=middle;resizable=0;points=[];" parent="6k8AdTA65JgWrHDslPgc-237" vertex="1" connectable="0">
          <mxGeometry x="0.3278" y="3" relative="1" as="geometry">
            <mxPoint x="10" y="2" as="offset" />
          </mxGeometry>
        </mxCell>
        <mxCell id="6k8AdTA65JgWrHDslPgc-239" value="tiene&lt;div&gt;1,1&lt;/div&gt;" style="shape=rhombus;perimeter=rhombusPerimeter;whiteSpace=wrap;html=1;align=center;" parent="1" vertex="1">
          <mxGeometry x="-290" y="1266.71" width="120" height="60" as="geometry" />
        </mxCell>
        <mxCell id="Z9AiUvHEAsDgNyZiXq5s-1" value="Producto" style="swimlane;childLayout=stackLayout;horizontal=1;startSize=50;horizontalStack=0;rounded=1;fontSize=14;fontStyle=0;strokeWidth=2;resizeParent=0;resizeLast=1;shadow=0;dashed=0;align=center;arcSize=4;whiteSpace=wrap;html=1;" parent="1" vertex="1">
          <mxGeometry x="490" y="190" width="158" height="160" as="geometry" />
        </mxCell>
        <mxCell id="Z9AiUvHEAsDgNyZiXq5s-2" value="&lt;span style=&quot;background-color: transparent; color: light-dark(rgb(0, 0, 0), rgb(255, 255, 255));&quot;&gt;Codigo&lt;/span&gt;&lt;div&gt;&lt;div&gt;&lt;span style=&quot;background-color: transparent; color: light-dark(rgb(0, 0, 0), rgb(255, 255, 255));&quot;&gt;Nombre&lt;/span&gt;&lt;/div&gt;&lt;/div&gt;&lt;div&gt;&lt;span style=&quot;background-color: transparent; color: light-dark(rgb(0, 0, 0), rgb(255, 255, 255));&quot;&gt;IdDepartamento&lt;/span&gt;&lt;/div&gt;&lt;div&gt;&lt;span style=&quot;background-color: transparent; color: light-dark(rgb(0, 0, 0), rgb(255, 255, 255));&quot;&gt;IdCategoria&lt;/span&gt;&lt;/div&gt;&lt;div&gt;&lt;span style=&quot;background-color: transparent; color: light-dark(rgb(0, 0, 0), rgb(255, 255, 255));&quot;&gt;IdLineaServicio&lt;/span&gt;&lt;/div&gt;&lt;div&gt;&lt;span style=&quot;background-color: transparent; color: light-dark(rgb(0, 0, 0), rgb(255, 255, 255));&quot;&gt;IdSublineaServicio&lt;/span&gt;&lt;/div&gt;" style="align=left;strokeColor=none;fillColor=none;spacingLeft=4;spacingRight=4;fontSize=12;verticalAlign=top;resizable=0;rotatable=0;part=1;html=1;whiteSpace=wrap;" parent="Z9AiUvHEAsDgNyZiXq5s-1" vertex="1">
          <mxGeometry y="50" width="158" height="110" as="geometry" />
        </mxCell>
        <mxCell id="HXhPkPJH1JH6XOMJlJsq-1" value="" style="rounded=0;orthogonalLoop=1;jettySize=auto;html=1;strokeColor=default;endArrow=none;startFill=0;" edge="1" parent="1" source="HXhPkPJH1JH6XOMJlJsq-5" target="6k8AdTA65JgWrHDslPgc-1">
          <mxGeometry relative="1" as="geometry">
            <mxPoint x="478" y="180" as="targetPoint" />
            <mxPoint x="400" y="80" as="sourcePoint" />
          </mxGeometry>
        </mxCell>
        <mxCell id="HXhPkPJH1JH6XOMJlJsq-2" value="1,N" style="edgeLabel;html=1;align=center;verticalAlign=middle;resizable=0;points=[];" vertex="1" connectable="0" parent="HXhPkPJH1JH6XOMJlJsq-1">
          <mxGeometry x="0.3278" y="3" relative="1" as="geometry">
            <mxPoint as="offset" />
          </mxGeometry>
        </mxCell>
        <mxCell id="HXhPkPJH1JH6XOMJlJsq-3" value="" style="rounded=0;orthogonalLoop=1;jettySize=auto;html=1;strokeColor=default;endArrow=none;startFill=0;" edge="1" parent="1" source="HXhPkPJH1JH6XOMJlJsq-5" target="Z9AiUvHEAsDgNyZiXq5s-1">
          <mxGeometry relative="1" as="geometry">
            <mxPoint x="450" y="210" as="targetPoint" />
          </mxGeometry>
        </mxCell>
        <mxCell id="HXhPkPJH1JH6XOMJlJsq-4" value="1,1" style="edgeLabel;html=1;align=center;verticalAlign=middle;resizable=0;points=[];" vertex="1" connectable="0" parent="HXhPkPJH1JH6XOMJlJsq-3">
          <mxGeometry x="0.3942" y="1" relative="1" as="geometry">
            <mxPoint as="offset" />
          </mxGeometry>
        </mxCell>
        <mxCell id="HXhPkPJH1JH6XOMJlJsq-5" value="tiene&lt;div&gt;N,1&lt;/div&gt;" style="shape=rhombus;perimeter=rhombusPerimeter;whiteSpace=wrap;html=1;align=center;" vertex="1" parent="1">
          <mxGeometry x="280" y="240" width="120" height="60" as="geometry" />
        </mxCell>
        <mxCell id="HXhPkPJH1JH6XOMJlJsq-6" value="CorreoAdicionalProveedor" style="swimlane;childLayout=stackLayout;horizontal=1;startSize=50;horizontalStack=0;rounded=1;fontSize=14;fontStyle=0;strokeWidth=2;resizeParent=0;resizeLast=1;shadow=0;dashed=0;align=center;arcSize=4;whiteSpace=wrap;html=1;" vertex="1" parent="1">
          <mxGeometry x="240" y="840" width="200" height="105" as="geometry" />
        </mxCell>
        <mxCell id="HXhPkPJH1JH6XOMJlJsq-7" value="Id&lt;div&gt;Correo&lt;/div&gt;&lt;div&gt;IdProveedor&lt;/div&gt;" style="align=left;strokeColor=none;fillColor=none;spacingLeft=4;spacingRight=4;fontSize=12;verticalAlign=top;resizable=0;rotatable=0;part=1;html=1;whiteSpace=wrap;" vertex="1" parent="HXhPkPJH1JH6XOMJlJsq-6">
          <mxGeometry y="50" width="200" height="55" as="geometry" />
        </mxCell>
        <mxCell id="HXhPkPJH1JH6XOMJlJsq-8" value="" style="rounded=0;orthogonalLoop=1;jettySize=auto;html=1;strokeColor=default;endArrow=none;startFill=0;" edge="1" parent="1" source="HXhPkPJH1JH6XOMJlJsq-12" target="6k8AdTA65JgWrHDslPgc-74">
          <mxGeometry relative="1" as="geometry">
            <mxPoint x="127" y="780" as="targetPoint" />
          </mxGeometry>
        </mxCell>
        <mxCell id="HXhPkPJH1JH6XOMJlJsq-9" value="1,1" style="edgeLabel;html=1;align=center;verticalAlign=middle;resizable=0;points=[];" vertex="1" connectable="0" parent="HXhPkPJH1JH6XOMJlJsq-8">
          <mxGeometry x="0.3278" y="3" relative="1" as="geometry">
            <mxPoint as="offset" />
          </mxGeometry>
        </mxCell>
        <mxCell id="HXhPkPJH1JH6XOMJlJsq-10" value="" style="rounded=0;orthogonalLoop=1;jettySize=auto;html=1;strokeColor=default;endArrow=none;startFill=0;" edge="1" parent="1" source="HXhPkPJH1JH6XOMJlJsq-12" target="HXhPkPJH1JH6XOMJlJsq-6">
          <mxGeometry relative="1" as="geometry">
            <mxPoint x="279" y="518" as="targetPoint" />
          </mxGeometry>
        </mxCell>
        <mxCell id="HXhPkPJH1JH6XOMJlJsq-11" value="1,N" style="edgeLabel;html=1;align=center;verticalAlign=middle;resizable=0;points=[];" vertex="1" connectable="0" parent="HXhPkPJH1JH6XOMJlJsq-10">
          <mxGeometry x="0.3942" y="1" relative="1" as="geometry">
            <mxPoint as="offset" />
          </mxGeometry>
        </mxCell>
        <mxCell id="HXhPkPJH1JH6XOMJlJsq-12" value="tiene&lt;div&gt;1,N&lt;/div&gt;" style="shape=rhombus;perimeter=rhombusPerimeter;whiteSpace=wrap;html=1;align=center;" vertex="1" parent="1">
          <mxGeometry x="280" y="730" width="120" height="60" as="geometry" />
        </mxCell>
        <mxCell id="HXhPkPJH1JH6XOMJlJsq-15" value="InformacionRegistro" style="swimlane;childLayout=stackLayout;horizontal=1;startSize=50;horizontalStack=0;rounded=1;fontSize=14;fontStyle=0;strokeWidth=2;resizeParent=0;resizeLast=1;shadow=0;dashed=0;align=center;arcSize=4;whiteSpace=wrap;html=1;" vertex="1" parent="1">
          <mxGeometry x="-440" y="215" width="205" height="105" as="geometry">
            <mxRectangle x="140" y="90" width="100" height="50" as="alternateBounds" />
          </mxGeometry>
        </mxCell>
        <mxCell id="HXhPkPJH1JH6XOMJlJsq-16" value="&lt;div&gt;Id&lt;/div&gt;&lt;div&gt;MontoTotal&lt;/div&gt;&lt;div&gt;IdFormaRegistro&lt;/div&gt;" style="align=left;strokeColor=none;fillColor=none;spacingLeft=4;spacingRight=4;fontSize=12;verticalAlign=top;resizable=0;rotatable=0;part=1;html=1;whiteSpace=wrap;" vertex="1" parent="HXhPkPJH1JH6XOMJlJsq-15">
          <mxGeometry y="50" width="205" height="55" as="geometry" />
        </mxCell>
        <mxCell id="HXhPkPJH1JH6XOMJlJsq-22" value="" style="rounded=0;orthogonalLoop=1;jettySize=auto;html=1;strokeColor=default;endArrow=none;startFill=0;" edge="1" parent="1" source="HXhPkPJH1JH6XOMJlJsq-26" target="HXhPkPJH1JH6XOMJlJsq-15">
          <mxGeometry relative="1" as="geometry">
            <mxPoint x="-15" y="597" as="targetPoint" />
          </mxGeometry>
        </mxCell>
        <mxCell id="HXhPkPJH1JH6XOMJlJsq-23" value="1,N" style="edgeLabel;html=1;align=center;verticalAlign=middle;resizable=0;points=[];" vertex="1" connectable="0" parent="HXhPkPJH1JH6XOMJlJsq-22">
          <mxGeometry x="0.3278" y="3" relative="1" as="geometry">
            <mxPoint as="offset" />
          </mxGeometry>
        </mxCell>
        <mxCell id="HXhPkPJH1JH6XOMJlJsq-24" value="" style="rounded=0;orthogonalLoop=1;jettySize=auto;html=1;strokeColor=default;endArrow=none;startFill=0;" edge="1" parent="1" source="HXhPkPJH1JH6XOMJlJsq-26" target="6k8AdTA65JgWrHDslPgc-7">
          <mxGeometry relative="1" as="geometry">
            <mxPoint x="-722.5" y="325" as="targetPoint" />
          </mxGeometry>
        </mxCell>
        <mxCell id="HXhPkPJH1JH6XOMJlJsq-25" value="1,1" style="edgeLabel;html=1;align=center;verticalAlign=middle;resizable=0;points=[];" vertex="1" connectable="0" parent="HXhPkPJH1JH6XOMJlJsq-24">
          <mxGeometry x="0.3942" y="1" relative="1" as="geometry">
            <mxPoint as="offset" />
          </mxGeometry>
        </mxCell>
        <mxCell id="HXhPkPJH1JH6XOMJlJsq-26" value="tiene&lt;div&gt;N,1&lt;/div&gt;" style="shape=rhombus;perimeter=rhombusPerimeter;whiteSpace=wrap;html=1;align=center;" vertex="1" parent="1">
          <mxGeometry x="-680" y="237.5" width="120" height="60" as="geometry" />
        </mxCell>
        <mxCell id="HXhPkPJH1JH6XOMJlJsq-37" value="Empleado" style="swimlane;childLayout=stackLayout;horizontal=1;startSize=50;horizontalStack=0;rounded=1;fontSize=14;fontStyle=0;strokeWidth=2;resizeParent=0;resizeLast=1;shadow=0;dashed=0;align=center;arcSize=4;whiteSpace=wrap;html=1;" vertex="1" parent="1">
          <mxGeometry x="-545" y="-150" width="200" height="180" as="geometry" />
        </mxCell>
        <mxCell id="HXhPkPJH1JH6XOMJlJsq-38" value="Id&lt;div&gt;Primer Nombre&lt;/div&gt;&lt;div&gt;Segundo Nombre&lt;/div&gt;&lt;div&gt;Primer Apellido&lt;/div&gt;&lt;div&gt;Segundo Nombre&lt;/div&gt;&lt;div&gt;Telefono&lt;/div&gt;&lt;div&gt;Correo&lt;/div&gt;&lt;div&gt;Habilitado&lt;/div&gt;" style="align=left;strokeColor=none;fillColor=none;spacingLeft=4;spacingRight=4;fontSize=12;verticalAlign=top;resizable=0;rotatable=0;part=1;html=1;whiteSpace=wrap;" vertex="1" parent="HXhPkPJH1JH6XOMJlJsq-37">
          <mxGeometry y="50" width="200" height="130" as="geometry" />
        </mxCell>
        <mxCell id="HXhPkPJH1JH6XOMJlJsq-39" value="TransaccionesEstadosItem" style="swimlane;childLayout=stackLayout;horizontal=1;startSize=50;horizontalStack=0;rounded=1;fontSize=14;fontStyle=0;strokeWidth=2;resizeParent=0;resizeLast=1;shadow=0;dashed=0;align=center;arcSize=4;whiteSpace=wrap;html=1;" vertex="1" parent="1">
          <mxGeometry x="-480" y="420" width="190" height="120" as="geometry" />
        </mxCell>
        <mxCell id="HXhPkPJH1JH6XOMJlJsq-40" value="Id&lt;div&gt;FechaTransaccion&lt;br&gt;&lt;div&gt;IdEstatus&lt;/div&gt;&lt;div&gt;IdItemInventario&lt;/div&gt;&lt;div&gt;&lt;br&gt;&lt;/div&gt;&lt;/div&gt;" style="align=left;strokeColor=none;fillColor=none;spacingLeft=4;spacingRight=4;fontSize=12;verticalAlign=top;resizable=0;rotatable=0;part=1;html=1;whiteSpace=wrap;" vertex="1" parent="HXhPkPJH1JH6XOMJlJsq-39">
          <mxGeometry y="50" width="190" height="70" as="geometry" />
        </mxCell>
        <mxCell id="HXhPkPJH1JH6XOMJlJsq-41" value="" style="rounded=0;orthogonalLoop=1;jettySize=auto;html=1;strokeColor=default;endArrow=none;startFill=0;" edge="1" parent="1" source="HXhPkPJH1JH6XOMJlJsq-45" target="HXhPkPJH1JH6XOMJlJsq-39">
          <mxGeometry relative="1" as="geometry">
            <mxPoint x="-833" y="720.25" as="targetPoint" />
          </mxGeometry>
        </mxCell>
        <mxCell id="HXhPkPJH1JH6XOMJlJsq-42" value="1,N" style="edgeLabel;html=1;align=center;verticalAlign=middle;resizable=0;points=[];" vertex="1" connectable="0" parent="HXhPkPJH1JH6XOMJlJsq-41">
          <mxGeometry x="0.3942" y="1" relative="1" as="geometry">
            <mxPoint as="offset" />
          </mxGeometry>
        </mxCell>
        <mxCell id="HXhPkPJH1JH6XOMJlJsq-43" value="" style="rounded=0;orthogonalLoop=1;jettySize=auto;html=1;strokeColor=default;endArrow=none;startFill=0;" edge="1" parent="1" source="HXhPkPJH1JH6XOMJlJsq-45" target="6k8AdTA65JgWrHDslPgc-81">
          <mxGeometry relative="1" as="geometry">
            <mxPoint x="-670" y="591.25" as="targetPoint" />
          </mxGeometry>
        </mxCell>
        <mxCell id="HXhPkPJH1JH6XOMJlJsq-44" value="1,1" style="edgeLabel;html=1;align=center;verticalAlign=middle;resizable=0;points=[];" vertex="1" connectable="0" parent="HXhPkPJH1JH6XOMJlJsq-43">
          <mxGeometry x="0.3278" y="3" relative="1" as="geometry">
            <mxPoint x="3" y="8" as="offset" />
          </mxGeometry>
        </mxCell>
        <mxCell id="HXhPkPJH1JH6XOMJlJsq-45" value="tiene&lt;div&gt;N,1&lt;/div&gt;" style="shape=rhombus;perimeter=rhombusPerimeter;whiteSpace=wrap;html=1;align=center;" vertex="1" parent="1">
          <mxGeometry x="-445" y="620" width="120" height="60" as="geometry" />
        </mxCell>
        <mxCell id="HXhPkPJH1JH6XOMJlJsq-47" value="" style="rounded=0;orthogonalLoop=1;jettySize=auto;html=1;strokeColor=default;endArrow=none;startFill=0;" edge="1" parent="1" source="HXhPkPJH1JH6XOMJlJsq-51" target="HXhPkPJH1JH6XOMJlJsq-40">
          <mxGeometry relative="1" as="geometry">
            <mxPoint x="-40" y="483" as="targetPoint" />
          </mxGeometry>
        </mxCell>
        <mxCell id="HXhPkPJH1JH6XOMJlJsq-48" value="1,N" style="edgeLabel;html=1;align=center;verticalAlign=middle;resizable=0;points=[];" vertex="1" connectable="0" parent="HXhPkPJH1JH6XOMJlJsq-47">
          <mxGeometry x="0.3278" y="3" relative="1" as="geometry">
            <mxPoint as="offset" />
          </mxGeometry>
        </mxCell>
        <mxCell id="HXhPkPJH1JH6XOMJlJsq-49" value="" style="rounded=0;orthogonalLoop=1;jettySize=auto;html=1;strokeColor=default;endArrow=none;startFill=0;" edge="1" parent="1" source="HXhPkPJH1JH6XOMJlJsq-51" target="6k8AdTA65JgWrHDslPgc-2">
          <mxGeometry relative="1" as="geometry">
            <mxPoint x="-315" y="467" as="targetPoint" />
          </mxGeometry>
        </mxCell>
        <mxCell id="HXhPkPJH1JH6XOMJlJsq-50" value="1,1" style="edgeLabel;html=1;align=center;verticalAlign=middle;resizable=0;points=[];" vertex="1" connectable="0" parent="HXhPkPJH1JH6XOMJlJsq-49">
          <mxGeometry x="0.3942" y="1" relative="1" as="geometry">
            <mxPoint as="offset" />
          </mxGeometry>
        </mxCell>
        <mxCell id="HXhPkPJH1JH6XOMJlJsq-51" value="tiene&lt;div&gt;N,1&lt;/div&gt;" style="shape=rhombus;perimeter=rhombusPerimeter;whiteSpace=wrap;html=1;align=center;" vertex="1" parent="1">
          <mxGeometry x="-160" y="410" width="120" height="60" as="geometry" />
        </mxCell>
        <mxCell id="HXhPkPJH1JH6XOMJlJsq-52" value="ItemsNoOperativo" style="swimlane;childLayout=stackLayout;horizontal=1;startSize=50;horizontalStack=0;rounded=1;fontSize=14;fontStyle=0;strokeWidth=2;resizeParent=0;resizeLast=1;shadow=0;dashed=0;align=center;arcSize=4;whiteSpace=wrap;html=1;" vertex="1" parent="1">
          <mxGeometry x="-1280" y="1099.03" width="160" height="101.94" as="geometry" />
        </mxCell>
        <mxCell id="HXhPkPJH1JH6XOMJlJsq-53" value="Id&lt;div&gt;&lt;div&gt;Nombre&lt;/div&gt;&lt;/div&gt;" style="align=left;strokeColor=none;fillColor=none;spacingLeft=4;spacingRight=4;fontSize=12;verticalAlign=top;resizable=0;rotatable=0;part=1;html=1;whiteSpace=wrap;" vertex="1" parent="HXhPkPJH1JH6XOMJlJsq-52">
          <mxGeometry y="50" width="160" height="51.94" as="geometry" />
        </mxCell>
      </root>
    </mxGraphModel>
  </diagram>
</mxfile>
